<?xml version="1.0" encoding="UTF-8" standalone="no"?>
<svg width="113px" height="30px" viewBox="0 0 113 30" version="1.1" xmlns="http://www.w3.org/2000/svg" xmlns:xlink="http://www.w3.org/1999/xlink">
    <!-- Generator: Sketch 43.1 (39012) - http://www.bohemiancoding.com/sketch -->
    <title>acme-logo</title>
    <desc>Created with Sketch.</desc>
    <defs></defs>
    <g id="Page-1" stroke="none" stroke-width="1" fill="none" fill-rule="evenodd">
        <path d="M110.204003,0 C109.709063,0 109.253673,0.114506667 108.823143,0.361976667 C108.394873,0.61246 108.055873,0.953343333 107.803507,1.38161333 C107.556037,1.81628667 107.40876,2.26866333 107.40876,2.76247333 C107.40876,3.26231 107.556037,3.74519667 107.803507,4.17685667 C108.055873,4.61153 108.394873,4.9494 108.823143,5.19649333 C109.253673,5.44509333 109.709063,5.55734 110.204003,5.55734 C110.70384,5.55734 111.185597,5.44509333 111.618387,5.19649333 C112.045527,4.9494 112.38641,4.61153 112.638023,4.17685667 C112.887377,3.74519667 113,3.26231 113,2.76247333 C113,2.26866333 112.887377,1.81628667 112.638023,1.38161333 C112.38641,0.953343333 112.045527,0.61246 111.618387,0.361976667 C111.185597,0.114506667 110.70384,0 110.204003,0 Z M110.204003,0.526203333 C110.82249,0.526203333 111.34568,0.743916667 111.782237,1.18386333 C112.223313,1.62494 112.440273,2.14474 112.440273,2.76247333 C112.440273,3.38736333 112.223313,3.93164667 111.782237,4.37460667 C111.34568,4.81041 110.82249,5.03151333 110.204003,5.03151333 C109.578737,5.03151333 109.066093,4.81041 108.625393,4.37460667 C108.184317,3.93164667 107.967357,3.38736333 107.967357,2.76247333 C107.967357,2.14474 108.184317,1.62494 108.625393,1.18386333 C109.066093,0.743916667 109.578737,0.526203333 110.204003,0.526203333 Z M108.9546,1.28292667 L108.9546,4.27554333 L109.6778,4.27554333 L109.6778,3.09168 C109.718857,3.08640667 109.755393,3.09168 109.776487,3.09168 C109.87442,3.09168 109.972353,3.14855667 110.07217,3.25590667 C110.16709,3.36664667 110.352033,3.71167333 110.632273,4.27554333 L111.519323,4.27554333 C111.198403,3.71167333 111.028903,3.39904 111.02589,3.38736333 C110.94453,3.25402333 110.87221,3.16136333 110.7965,3.09168 C110.742637,3.04535 110.652237,3.00354 110.53321,2.96022333 C110.81119,2.89506 111.028903,2.77829333 111.158477,2.63101667 C111.28466,2.48449333 111.355097,2.33721667 111.355097,2.13720667 C111.355097,1.88559333 111.259423,1.66147667 111.092183,1.51307 C110.922683,1.35750667 110.648093,1.28292667 110.270297,1.28292667 L108.9546,1.28292667 Z M109.6778,1.80913 L110.039777,1.80913 C110.24393,1.80913 110.38066,1.83625 110.466917,1.90781667 C110.55129,1.97637 110.598373,2.05848333 110.598373,2.17110667 C110.598373,2.27506667 110.5479,2.36245333 110.466917,2.43402 C110.374257,2.50031333 110.220577,2.53308333 110.007007,2.53308333 L109.6778,2.53308333 L109.6778,1.80913 Z M9.53768967,5.06503667 C8.283239,5.06503667 6.90991233,5.17766 5.39446933,5.42701333 C3.87379067,5.66921 2.57304767,5.94493 1.51333367,6.2489 C0.484092,6.66775333 0,7.34349333 0,8.28742 C0,8.36539 0.0347286667,8.57896 0.132586667,8.87991667 C0.224154333,9.18614667 0.386234,9.48183 0.592496667,9.76696667 C0.801923333,10.05135 1.07237,10.2573867 1.41438333,10.4257567 C1.751161,10.5994 2.19946967,10.6110767 2.729854,10.4585267 C3.98219533,10.15644 5.173479,9.93006333 6.31425167,9.73457333 C7.44978867,9.55113667 8.568451,9.43851333 9.66922167,9.43851333 C10.1606963,9.51535333 10.6100597,9.62082 11.0499687,9.73457333 C11.4856213,9.85435333 11.865565,9.98581 12.168631,10.1952367 C12.4717347,10.4046633 12.6874517,10.7161667 12.8589857,11.1161867 C13.0305197,11.5116867 13.1220873,12.0506967 13.1220873,12.6947967 L13.1220873,13.87866 C9.976544,13.87866 7.66234167,14.0587067 6.18377433,14.4376333 C4.62625767,14.7785167 3.43286467,15.3005767 2.598322,15.9834733 C0.853489,17.2682833 0,19.0943633 0,21.4421267 C0,23.7217133 0.853489,25.5621067 2.598322,26.9670733 C3.660183,27.8017667 4.89881367,28.36865 6.28163233,28.67714 C7.66550567,28.9792267 9.29247967,29.10541 11.1488813,29.10541 C12.4359513,29.10541 13.9019003,29.01275 15.5888397,28.8085967 C17.2768713,28.59917 18.8186057,28.3309833 20.225644,27.98671 C20.7181357,27.83755 21.143317,27.57652 21.443219,27.1975933 C21.745268,26.8145233 21.903129,26.3516 21.903129,25.8156033 L21.903129,12.6947967 C21.903129,10.3459033 21.0138567,8.52434333 19.2721877,7.23501333 C18.1293057,6.36152333 16.763324,5.77844333 15.194206,5.49217667 C13.6187977,5.2093 11.7361047,5.06503667 9.53768967,5.06503667 Z M37.0636233,5.06503667 C35.0156867,5.06503667 33.1730333,5.22173 31.5059067,5.52494667 C29.8357667,5.82703333 28.4616867,6.39843667 27.36182,7.23501333 C25.6201133,8.52434333 24.730841,10.3459033 24.730841,12.6947967 L24.730841,21.4421267 C24.730841,23.7217133 25.6201133,25.5621067 27.36182,26.9670733 C28.5004833,27.8405633 29.8485733,28.4108367 31.4407433,28.67714 C33.0329133,28.94043 34.9030633,29.0718867 37.0636233,29.0718867 C37.6338967,29.0718867 38.27084,29.02857 38.97144,28.9728233 C39.6694033,28.9182067 40.3858233,28.8225333 41.1090233,28.70991 C41.8265733,28.59917 42.54337,28.4824033 43.24623,28.3486867 C43.9483367,28.2142167 44.58302,28.0699533 45.1544233,27.9204167 C46.1352633,27.5049533 46.63397,26.8039767 46.63397,25.8156033 C46.63397,25.78434 46.5812367,25.56851 46.5025133,25.1918433 C46.3518467,24.6234533 46.0245233,24.1951833 45.51527,23.9089167 C45.0037567,23.62265 44.47115,23.5605 43.9042667,23.7111667 C42.4993,24.05318 41.2920833,24.3183533 40.2871367,24.4675133 C39.2874633,24.61931 38.1706467,24.6980333 36.96569,24.6980333 C35.9377667,24.6980333 35.1365967,24.43286 34.53167,23.94131 C34.2642367,23.7880067 34.0190267,23.5047533 33.80847,23.08703 C33.6024333,22.6681767 33.4792633,22.1261533 33.4792633,21.4421267 L33.4792633,12.6947967 C33.5173067,12.0160433 33.6382167,11.4499133 33.80847,11.0498933 C33.98023,10.6551467 34.2126333,10.37227 34.4989,10.1628433 C34.7862967,9.95417 35.1358433,9.77864333 35.5513067,9.70180333 C35.9682767,9.63136667 36.4259267,9.55452667 36.96569,9.43851333 C38.0632967,9.43851333 39.1853867,9.51987333 40.31953,9.70180333 C41.4593233,9.89842333 42.6537333,10.15531 43.9042667,10.4585267 C43.9777167,10.4984533 44.1302667,10.52369 44.3977,10.52369 C45.5352333,10.52369 46.2380933,10.0057733 46.5025133,8.94508 C46.5812367,8.56314 46.63397,8.32508667 46.63397,8.28742 C46.63397,7.34236333 46.1352633,6.66662333 45.1544233,6.2489 C44.5438467,6.09748 43.99768,5.97092 43.5430433,5.85415333 C43.0884067,5.74266 42.7042067,5.63644 42.3256567,5.55734 C40.5029667,5.21645667 38.7315033,5.06503667 37.0636233,5.06503667 Z M60.28211,5.06503667 C58.99617,5.06503667 57.47971,5.16598333 55.7760467,5.39349 C54.0678633,5.61949 52.5419867,5.87939 51.13928,6.18260667 C50.6466,6.33515667 50.2258633,6.62782667 49.9226467,7.00562333 C49.6175467,7.38869333 49.4616067,7.82638 49.4616067,8.35371333 L49.4616067,25.8156033 C49.4616067,26.4672367 49.66802,27.00926 50.0868733,27.4281133 C50.4993233,27.8458367 51.0255267,28.0530033 51.6327133,28.0530033 L56.0065667,28.0530033 C56.6114933,28.0530033 57.1493733,27.8322767 57.5851767,27.3942133 C58.0239933,26.9587867 58.2428367,26.42505 58.2428367,25.8156033 L58.2428367,9.83326 C59.0003133,9.56394333 59.7299167,9.43851333 60.4139433,9.43851333 C61.0535233,9.43851333 61.4693633,9.51987333 61.66297,9.70180333 C62.0407667,9.93533667 62.2882367,10.3489167 62.4196933,10.9184367 C62.55228,11.49097 62.6163133,12.08874 62.6163133,12.6947967 L62.6163133,25.8156033 C62.6163133,26.4672367 62.8227267,27.00926 63.24158,27.4281133 C63.6623167,27.8458367 64.1802333,28.0530033 64.78742,28.0530033 L69.1612733,28.0530033 C69.76959,28.0530033 70.286,27.8153267 70.7071133,27.36182 C71.1229533,26.90078 71.29848,26.3892667 71.29848,25.8156033 L71.29848,9.83326 C71.7173333,9.71348 72.1350567,9.61027333 72.5162433,9.53757667 C72.8947933,9.45960667 73.23078,9.43851333 73.53588,9.43851333 C74.40824,9.43851333 74.99245,9.69879 75.2787167,10.2280067 C75.5649833,10.7594833 75.7058567,11.59832 75.7058567,12.6947967 L75.7058567,25.8156033 C75.7058567,26.42618 75.92809,26.9587867 76.3635167,27.3942133 C76.8034633,27.8311467 77.30669,28.0530033 77.9097333,28.0530033 L82.28321,28.0530033 C82.8903967,28.0530033 83.4049233,27.8153267 83.82905,27.36182 C84.24263,26.90078 84.4543167,26.3892667 84.4531867,25.8156033 L84.4531867,12.6947967 C84.4531867,10.4193533 83.59853,8.60005333 81.8884633,7.23501333 C80.8658133,6.43836333 79.61641,5.85114 78.1391233,5.52494667 C76.6573167,5.20817 75.0787067,5.06503667 73.3705233,5.06503667 C72.0077433,5.06503667 70.7417667,5.12492667 69.5895433,5.26165667 C68.43167,5.39236 67.25308,5.56261333 66.0368233,5.78786 C65.0514633,5.48690333 64.1614,5.29028333 63.4058067,5.19649333 C62.6456933,5.10609333 61.61438,5.06503667 60.28211,5.06503667 Z M98.0689333,5.06503667 C96.77885,5.06503667 95.2812233,5.15129333 93.5963933,5.36072 C91.90516,5.57127667 90.3645933,5.84172333 88.9596267,6.18260667 C88.4658167,6.33515667 88.04621,6.62669667 87.7429933,7.00562333 C87.4378933,7.38756333 87.3147233,7.82638 87.3147233,8.35371333 L87.3147233,21.4421267 C87.3147233,23.7217133 88.1701333,25.5609767 89.91297,26.9670733 C91.04862,27.8394333 92.4291033,28.4089533 94.0235333,28.67714 C95.6145733,28.94043 97.4881133,29.0718867 99.6475433,29.0718867 C100.215557,29.0718867 100.85363,29.0297 101.55423,28.9728233 C102.25935,28.9151933 102.970873,28.8225333 103.692943,28.70991 C104.413507,28.59917 105.12503,28.4824033 105.83015,28.3486867 C106.53301,28.2142167 107.16355,28.0722133 107.737967,27.9204167 C108.72408,27.5049533 109.21789,26.8062367 109.21789,25.8156033 C109.251413,25.7451667 109.21337,25.5737833 109.118827,25.2894 C109.024283,25.00125 108.853653,24.7202567 108.625393,24.43512 C108.399017,24.15601 108.103333,23.9172033 107.737967,23.74469 C107.37938,23.57632 106.98049,23.56163 106.48781,23.7111667 C105.08096,24.05205 103.872613,24.3172233 102.869927,24.4675133 C101.86046,24.62044 100.75984,24.6980333 99.54848,24.6980333 C98.5182967,24.6980333 97.6888767,24.43512 97.08169,23.94131 C96.8187767,23.7880067 96.5988033,23.5047533 96.39126,23.08703 C96.17995,22.6693067 96.0631833,22.1261533 96.0631833,21.4421267 L96.0631833,20.2906567 C99.13377,20.2906567 101.44688,20.1381067 103.002513,19.7983533 C104.554757,19.38063 105.75218,18.8363467 106.586873,18.18622 C108.32632,16.89915 109.21789,15.0858767 109.21789,12.6947967 C109.21789,10.3447733 108.32632,8.52208333 106.586873,7.23501333 C105.52618,6.39617667 104.28544,5.82590333 102.90345,5.52494667 C101.519577,5.2206 99.9251467,5.06503667 98.0689333,5.06503667 Z M98.23316,9.43851333 C98.87613,9.43851333 99.2968667,9.52062667 99.4833167,9.70180333 C99.9063133,9.97451 100.156797,10.3605933 100.272433,10.8528967 C100.385057,11.3444467 100.43666,11.978 100.43666,12.6947967 C100.43666,13.2997233 100.37564,13.8839333 100.23891,14.4700267 C100.105193,15.0625233 99.8641267,15.4614133 99.4833167,15.68779 C99.2181433,15.8772533 98.8203833,15.9834733 98.3318467,15.9834733 C97.6090233,15.9834733 96.8617167,15.85503 96.0631833,15.5887267 L96.0631833,9.83326 C96.82292,9.56394333 97.5491333,9.43851333 98.23316,9.43851333 Z M10.786867,18.18622 C11.5845717,18.18622 12.3654393,18.32295 13.1220873,18.5481967 L13.1220873,24.3360567 C12.3654393,24.60123 11.6350827,24.7308033 10.952073,24.7308033 C10.08073,24.7308033 9.51139833,24.4720333 9.20829467,23.94131 C8.904174,23.4132233 8.74842233,22.5838033 8.74842233,21.4421267 C8.709475,20.4590267 8.871517,19.6329967 9.20829467,19.00886 C9.55558133,18.3851 10.0659647,18.1154067 10.786867,18.18622 Z" id="acme-logo" fill="#231F20"></path>
    </g>
</svg>