<svg xmlns="http://www.w3.org/2000/svg" viewBox="0 0 466.82 105.09"><defs><style>.cls-1{fill:#eb5151;}.cls-2{fill:#fff;}</style></defs><title>Asset 1</title><g id="Layer_2" data-name="Layer 2"><g id="Layer_1-2" data-name="Layer 1"><path class="cls-1" d="M95.48,49.66,92,48c.84-3.19,3.39-12.4,3.51-12.82v0a3.58,3.58,0,0,0-.84-3.38,3.64,3.64,0,0,0-3.32-1.05L80.2,33,79,28.81a3.55,3.55,0,0,0-2.61-2.5,3.6,3.6,0,0,0-3.47,1.08l-6.27,6.94C68,27.14,70,16.58,70,16.58A3.59,3.59,0,0,0,68.57,13a3.63,3.63,0,0,0-3.76-.29l-5.56,2.9C57.88,13.11,54.63,7,52.94,3.87c-.47-.88-.81-1.51-1.09-2h0a3.57,3.57,0,0,0-6.29,0L38.23,15.62c-2.58-1.31-5-2.61-5.4-2.83l-.06,0h0a3.56,3.56,0,0,0-5.21,3.78l3.3,17.84-6.29-7a3.56,3.56,0,0,0-6.07,1.38L17.24,33,6.15,30.63A3.56,3.56,0,0,0,2,35.06L5.51,48,2,49.69a3.56,3.56,0,0,0-.72,6L22.6,73.09a2.35,2.35,0,0,1-.09.45L21,78.8a3.57,3.57,0,0,0,3.44,4.56l.4,0,17-2c-.52,4.81-1.75,14.47-2.46,19.86,0,.06,0,.12,0,.17A3.57,3.57,0,0,0,43,105.09H54.53A3.59,3.59,0,0,0,57.12,104a3.63,3.63,0,0,0,1-2.77l-2.3-19.92c2.85.34,8.1,1,15.69,2l1.2.15.29,0h.3a3.36,3.36,0,0,0,2.53-1.17,3.66,3.66,0,0,0,.91-2.41,3.62,3.62,0,0,0-.32-1.49l-1.48-5.14,0-.12L75,73c1.5-1.16,8.36-6.76,20.38-16.64l.84-.7a3.56,3.56,0,0,0-.74-6Z"/><path class="cls-2" d="M172.31,82.77V54.32L161.78,69.89A6.63,6.63,0,0,1,156.23,73a6.84,6.84,0,0,1-5.64-3.2L140.15,54.32V82.77h-13.8V33.19a6.81,6.81,0,0,1,6.9-7.07A6.41,6.41,0,0,1,138.89,29l17.34,25.67L173.57,29a6.6,6.6,0,0,1,5.81-2.86,6.74,6.74,0,0,1,6.73,6.9V82.77Z"/><path class="cls-2" d="M235.77,82.77,231.9,72.41H211.78l-3.87,10.35H193.85l21.71-52.52a6.69,6.69,0,0,1,6.31-4.12,6.57,6.57,0,0,1,6.23,4.12l21.72,52.52ZM221.88,45.14l-6.14,16.67H228Z"/><path class="cls-2" d="M288,64.76H272v18H257.57V34a7.22,7.22,0,0,1,7.15-7.24H288c11.28,0,19.19,8.5,19.19,18.85A18.92,18.92,0,0,1,288,64.76Zm-2.53-26.43H272V53.14h13.47a7.46,7.46,0,0,0,7.15-7.58A7.17,7.17,0,0,0,285.43,38.33Z"/><path class="cls-2" d="M345.78,64.76h-16v18H315.4V34a7.22,7.22,0,0,1,7.15-7.24h23.23c11.28,0,19.19,8.5,19.19,18.85A18.92,18.92,0,0,1,345.78,64.76Zm-2.53-26.43H329.79V53.14h13.47a7.46,7.46,0,0,0,7.15-7.58A7.17,7.17,0,0,0,343.25,38.33Z"/><path class="cls-2" d="M380.29,82.77a7.15,7.15,0,0,1-7.07-7.24V26.71h14.39V70.39h28.53V82.77Z"/><path class="cls-2" d="M439.13,38.92v9.34h18.69a6.06,6.06,0,1,1,0,12.12H439.13V70.56h27.61V82.77H431.89a7.22,7.22,0,0,1-7.15-7.24V34a7.22,7.22,0,0,1,7.15-7.24h34.93v12.2Z"/></g></g></svg>