<?xml version="1.0" encoding="UTF-8" standalone="no"?>
<svg width="13px" height="24px" viewBox="0 0 13 24" version="1.1" xmlns="http://www.w3.org/2000/svg" xmlns:xlink="http://www.w3.org/1999/xlink">
    <!-- Generator: Sketch 43.1 (39012) - http://www.bohemiancoding.com/sketch -->
    <title>mappleLeaf</title>
    <desc>Created with Sketch.</desc>
    <defs></defs>
    <g id="Page-1" stroke="none" stroke-width="1" fill="none" fill-rule="evenodd" stroke-linecap="round" stroke-linejoin="round">
        <path d="M11.7009,0.629 L9.8683,4.0482 C9.8683,4.0482 9.8353,4.2004 9.4394,4.0009 C8.7617,3.6594 8.118,3.3089 8.1161,3.3081 C7.8683,3.1736 7.5802,3.3882 7.6313,3.6594 C7.6924,3.9901 8.7762,9.4723 8.5404,9.2344 C8.4557,9.1467 7.0426,7.5831 6.1138,6.5535 C5.9403,6.3617 5.6225,6.4323 5.5492,6.6825 L5.1651,7.9844 C5.1351,8.0584 5.07,8.0652 4.9914,8.0474 C4.5548,7.9503 2.1712,7.4387 2.1712,7.4387 C1.9221,7.3883 1.7179,7.6132 1.7816,7.8506 L2.6572,11.0683 C2.6677,11.1073 2.6714,11.1631 2.6687,11.1956 C2.4537,11.311 1.7866,11.6342 1.5342,11.7553 C1.3141,11.8605 1.2805,12.1583 1.4679,12.3111 L6.4207,16.3634 C6.4276,16.3692 6.5802,16.516 6.4674,16.9014 C6.2827,17.5341 6.1191,18.1007 6.1191,18.1007 C6.0535,18.3265 6.2346,18.5467 6.4746,18.5229 L10.9598,17.985 C10.9213,18.6871 10.3409,23.1353 10.3409,23.1353 C10.3315,23.3312 10.4851,23.4865 10.6722,23.4865" id="mappleLeaf" stroke="#FC797A"></path>
    </g>
</svg>